# Blender v2.74 (sub 0) OBJ File: ''
# www.blender.org
o Cube_Cube.001
v -1.000000 -1.000000 1.000000
v -1.000000 1.000000 1.000000
v -1.000000 -1.000000 -1.000000
v -1.000000 1.000000 -1.000000
v 1.000000 -1.000000 1.000000
v 1.000000 1.000000 1.000000
v 1.000000 -1.000000 -1.000000
v 1.000000 1.000000 -1.000000
vn -0.577300 0.577300 -0.577300
vn -0.577300 -0.577300 -0.577300
vn -0.577300 -0.577300 0.577300
vn 0.577300 0.577300 -0.577300
vn 0.577300 -0.577300 -0.577300
vn 0.577300 0.577300 0.577300
vn 0.577300 -0.577300 0.577300
vn -0.577300 0.577300 0.577300
s 1
f 4//1 3//2 1//3
f 8//4 7//5 3//2
f 6//6 5//7 7//5
f 2//8 1//3 5//7
f 3//2 7//5 5//7
f 8//4 4//1 2//8
f 2//8 4//1 1//3
f 4//1 8//4 3//2
f 8//4 6//6 7//5
f 6//6 2//8 5//7
f 1//3 3//2 5//7
f 6//6 8//4 2//8
